<?xml version="1.0" encoding="utf-8"?>
<!-- Generator: Adobe Illustrator 26.0.1, SVG Export Plug-In . SVG Version: 6.00 Build 0)  -->
<svg version="1.1" id="Layer_1" xmlns="http://www.w3.org/2000/svg" xmlns:xlink="http://www.w3.org/1999/xlink" x="0px" y="0px"
	 viewBox="0 0 1440 320" style="enable-background:new 0 0 1440 320;" xml:space="preserve">
<style type="text/css">
	.st0{fill:#8CBEC7;}
</style>
<path class="st0" d="M0,123.3c48.6-2.4,85.9,8.1,111,18c49.3,19.5,75,41.6,144,69.1c77.8,31.1,111.2,2.6,223-6
	c131.1-10.1,159.5,24.8,225.8,35.2c30.2,4.7,54.8,2.7,87.2-0.7c141.9-14.6,149.2-37.1,214-35.9c113,2,139.1,71.1,211,44.9
	c45.8-16.7,50.5-50.3,107-68.9c45.5-15,88.6-8.4,117-1c0,3.4,0,57.5,0,60.9c0,5.9,0,75.1-0.1,81.1h-60c-60,0-180,0-300,0
	s-240,0-360,0s-240,0-360,0s-240,0-300,0H0C0,254.4,0,188.9,0,123.3z"/>
</svg>
